# xmcd
#
# Track frame offsets: 
#        182
#        13342
#        26482
#        62280
#        75287
#        99487
#        105795
#        140605
#        154157
#        178562
#        193117
#        204050
#        239620
#        252820
#        268915
#        273835
#        278812
#        290455
#        313617
#        323782
#
# Disc length: 4730 seconds
#
# Revision: 4
# Processed by: cddbd v1.5.2PL0 Copyright (c) Steve Scherf et al.
# Submitted via: ExactAudioCopy v0.95b3
#
DISCID=0d127814
DTITLE=Tchaikovsky, Pyotr Ilyich - Mark Ermler conducts the Orchestra 
DTITLE=of the Royal Opera House, Covent Garden - Swan Lake, The Nutcra
DTITLE=cker (extended suites)
DYEAR=1989
DGENRE=Classical
TTITLE0=Swan Lake, Introduction
TTITLE1=Swan Lake,  N°1 Scene
TTITLE2=Swan Lake,  N°2 Waltz
TTITLE3=Swan Lake,  N°10 Scene
TTITLE4=Swan Lake,  N°11 Scene
TTITLE5=Swan Lake,  N°13 Danses des cygnes, 4 Allegro Moderato
TTITLE6=Swan Lake,  N°13 Danses des cygnes, 5 Pas d'action
TTITLE7=Swan Lake,  N°20 Danse hongroise, Csardas
TTITLE8=Swan Lake,  N°29 Scene finale
TTITLE9=The Nutcracker, Overture
TTITLE10=The Nutcracker, N°2 Marche
TTITLE11=The Nutcracker, N°6 Scene
TTITLE12=The Nutcracker, N°7 Scene
TTITLE13=The Nutcracker, N°12 Divertissement
TTITLE14=The Nutcracker, N°12 Divertissement
TTITLE15=The Nutcracker, N°12 Divertissement
TTITLE16=The Nutcracker, N°12 Divertissement
TTITLE17=The Nutcracker, N°14 Pas de deux
TTITLE18=The Nutcracker, N°14 (ii) Danse de la Fee-Dragee
TTITLE19=The Nutcracker, N°13 Valse des Fleurs
EXTD=
EXTT0=
EXTT1=
EXTT2=
EXTT3=
EXTT4=
EXTT5=(iv) Allegro Moderato
EXTT6=(v) Pas d`action
EXTT7=
EXTT8=
EXTT9=
EXTT10=
EXTT11=
EXTT12=
EXTT13=
EXTT14=
EXTT15=
EXTT16=
EXTT17=
EXTT18=
EXTT19=
PLAYORDER=
